<?xml version="1.0" standalone="no"?>
<!DOCTYPE svg PUBLIC "-//W3C//DTD SVG 1.1//EN" "http://www.w3.org/Graphics/SVG/1.1/DTD/svg11.dtd" >
<svg xmlns="http://www.w3.org/2000/svg">
<metadata>
This is a custom SVG webfont generated by Font Squirrel.
</metadata>
<defs>
<font id="webfontsfN8hlpZ" horiz-adv-x="552" >
<font-face units-per-em="1000" ascent="800" descent="-200" />
<missing-glyph horiz-adv-x="250" />
<glyph unicode=" "  horiz-adv-x="250" />
<glyph unicode="&#x09;" horiz-adv-x="250" />
<glyph unicode="&#xa0;" horiz-adv-x="250" />
<glyph unicode="!" horiz-adv-x="250" d="M153 93v-93h-56v93h56zM99 679h52v-212l-12 -287h-28l-12 287v212z" />
<glyph unicode="&#x22;" horiz-adv-x="281" d="M49 460l-14 126v104h56v-104l-14 -126h-28zM205 460l-14 126v104h56v-104l-14 -126h-28z" />
<glyph unicode="#" horiz-adv-x="668" d="M265 698h47l-42 -204h190l42 204h47l-42 -204h80v-45h-90l-39 -194h129v-45h-139l-44 -203h-47l44 203h-188l-44 -203h-47l44 203h-84v45h92l40 194h-132v45h141zM261 449l-40 -194h190l39 194h-189z" />
<glyph unicode="$" horiz-adv-x="510" d="M240 34v291q-83 11 -131.5 56t-48.5 112q0 71 49.5 117t130.5 51v29h46v-29q161 -23 167 -197h-48q-3 130 -119 153v-253q195 -30 195 -184q0 -81 -51 -131t-144 -59v-75h-46v75q-182 9 -203 210h50q18 -154 153 -166zM286 35q68 8 108 45.5t40 97.5q0 52 -36 88.5 t-112 47.5v-279zM240 376v243q-59 -5 -93 -37t-34 -83q0 -92 127 -123z" />
<glyph unicode="%" horiz-adv-x="844" d="M810 176q0 -181 -135 -181q-66 0 -100.5 46.5t-34.5 135.5t34.5 135t101.5 46q134 0 134 -182zM770 176q0 75 -24 114.5t-69 39.5q-95 0 -95 -154q0 -153 94 -153t94 153zM303 508q0 -181 -135 -181q-66 0 -100.5 46.5t-34.5 135.5t34.5 135t101.5 46q134 0 134 -182z M263 508q0 75 -24 114.5t-69 39.5q-95 0 -95 -154q0 -153 94 -153t94 153zM165 0l478 679h34l-478 -679h-34z" />
<glyph unicode="&#x26;" horiz-adv-x="698" d="M524 0l-56 77q-88 -87 -195 -87q-94 0 -157.5 60.5t-63.5 150.5q0 142 178 206q-26 35 -39 54t-23.5 43.5t-10.5 45.5q0 58 47 99t114 41q64 0 108.5 -39.5t44.5 -96.5q0 -53 -40.5 -92t-128.5 -73l166 -235q54 78 75 187h115v-45h-76q-18 -66 -35.5 -104t-47.5 -76 l52 -71h107v-45h-134zM439 116l-182 254q-149 -53 -149 -161q0 -63 46 -116.5t125 -53.5q87 0 160 77zM276 426q73 26 111 56.5t38 72.5q0 38 -31.5 64.5t-77.5 26.5q-47 0 -78 -26t-31 -65q0 -8 1.5 -15.5t5.5 -17t7 -16t11 -18.5l12 -18l16 -21z" />
<glyph unicode="'" horiz-adv-x="219" d="M96 460l-14 126v104h56v-104l-14 -126h-28z" />
<glyph unicode="(" horiz-adv-x="354" d="M141 239q0 -153 46 -252t141 -155v-44q-68 30 -117 81.5t-74.5 114.5t-37 125.5t-11.5 129.5t11.5 129.5t37 125.5t74.5 114.5t117 81.5v-44q-95 -56 -141 -155t-46 -252z" />
<glyph unicode=")" horiz-adv-x="354" d="M213 239q0 153 -46 252t-141 155v44q68 -30 117 -81.5t74.5 -114.5t37 -125.5t11.5 -129.5t-11.5 -129.5t-37 -125.5t-74.5 -114.5t-117 -81.5v44q95 56 141 155t46 252z" />
<glyph unicode="*" horiz-adv-x="490" d="M188 342l-45 -60l-43 33l43 61q19 8 33.5 25t48.5 64q-70 23 -104 23q-7 0 -13 -1l-73 24l18 53l71 -23q14 -15 36 -25.5t73 -28.5q-3 51 -7 74q-4 28 -11 44v74h60v-74q-9 -19 -12 -44q-5 -27 -6 -74q84 29 109 54l71 23l18 -53l-74 -24q-6 2 -14 2q-32 0 -101 -24 q52 -79 80 -89l44 -61l-44 -33l-44 60q-2 22 -13.5 42.5t-43.5 63.5l-15 -20q-9 -12 -13 -18l-11 -16q-6 -10 -9 -17t-5.5 -16t-3.5 -19z" />
<glyph unicode="+" horiz-adv-x="667" d="M356 343h240v-45h-240v-240h-45v240h-240v45h240v240h45v-240z" />
<glyph unicode="," horiz-adv-x="250" d="M97 0v93h56v-109q0 -107 -65 -110v36q20 0 26 18t8 72h-25z" />
<glyph unicode="-" horiz-adv-x="344" d="M34 214v45h275v-45h-275z" />
<glyph unicode="." horiz-adv-x="250" d="M97 0v93h56v-93h-56z" />
<glyph unicode="/" horiz-adv-x="281" d="M234 679h47l-234 -693h-47z" />
<glyph unicode="0" horiz-adv-x="531" d="M266 -9q-108 0 -163.5 89t-55.5 260q0 172 55.5 261t163.5 89q107 0 163 -89t56 -261q0 -171 -56 -260t-163 -89zM266 33q84 0 126 81.5t42 226.5q0 149 -43.5 228t-124.5 79q-82 0 -125 -79t-43 -228q0 -308 168 -308z" />
<glyph unicode="1" horiz-adv-x="531" d="M148 0v45h96v589h-96v45h148v-634h96v-45h-244z" />
<glyph unicode="2" horiz-adv-x="531" d="M460 211l-6 -211h-399q-1 8 -1 16q0 53 28 116q32 74 86 128q38 38 103 80.5t86 63.5q43 43 43 109q0 59 -37 97t-95 38q-77 0 -115 -50q-36 -47 -36 -128v-9h-46v14q0 97 51 154q54 61 145 61q84 0 134 -48.5t50 -130.5q0 -83 -52 -135q-20 -20 -90.5 -66t-108.5 -84 q-48 -48 -71 -101.5t-23 -79.5h305l5 166h44z" />
<glyph unicode="3" horiz-adv-x="531" d="M39 209h47q9 -89 58.5 -132.5t115.5 -43.5q62 0 112.5 39t50.5 116q0 45 -19.5 77.5t-50 47t-67.5 20.5q-15 3 -30 3q-20 0 -39 -5v45q8 -1 17 -1q61 0 102 34q47 38 47 108q0 57 -36.5 94t-92.5 37q-63 0 -95 -39t-33 -102h-48q1 87 50.5 135t127.5 48q77 0 127.5 -49.5 t50.5 -124.5q0 -113 -110 -155v-2q62 -9 106 -51.5t44 -120.5q0 -85 -60.5 -140.5t-154.5 -55.5t-155 60.5t-65 157.5z" />
<glyph unicode="4" horiz-adv-x="531" d="M255 0v41h76v158h-262q-7 25 -25 40l287 446h45v-446h110v-40h-110v-158h60v-41h-181zM331 239v379h-2l-239 -379h241z" />
<glyph unicode="5" horiz-adv-x="531" d="M49 191h50q10 -72 50.5 -115t110.5 -43q71 0 120.5 49.5t49.5 135.5q0 78 -44.5 126t-115.5 48q-88 0 -151 -84q-14 14 -40 24l31 347h330v-144h-46v94h-243l-24 -258l2 -2q62 65 152 65q86 0 143 -61.5t57 -154.5q0 -59 -21 -105t-55 -71.5t-70.5 -38t-73.5 -12.5 q-87 0 -146 55.5t-66 144.5z" />
<glyph unicode="6" horiz-adv-x="531" d="M466 502h-50q-2 71 -35 108.5t-92 37.5q-61 0 -100 -40t-55 -103.5t-19 -157.5l2 -2q73 86 173 86q82 0 135 -60t53 -154q0 -100 -56 -163t-145 -63q-212 0 -212 321q0 69 9.5 129.5t32 119.5t68 94t108.5 35q83 0 130.5 -50.5t52.5 -137.5zM115 294q0 -123 40.5 -192 t121.5 -69q68 0 109 48t41 135q0 71 -36.5 122t-107.5 51q-43 0 -88 -25.5t-80 -69.5z" />
<glyph unicode="7" horiz-adv-x="531" d="M137 0v45h85q-2 24 -2 49q0 109 39 244q48 165 150 291h-299v-101h-46v151h396v-45q-100 -134 -148 -290q-39 -130 -39 -253q0 -23 1 -46h80v-45h-217z" />
<glyph unicode="8" horiz-adv-x="531" d="M183 359v-1v2q-55 11 -87 52.5t-32 99.5q0 81 57 129.5t145 48.5q87 0 144 -50.5t57 -127.5q0 -58 -32 -99.5t-87 -52.5v-2q66 -15 103.5 -60t37.5 -110q0 -86 -62.5 -141.5t-160.5 -55.5t-161 55.5t-63 141.5q0 64 37.5 109.5t103.5 61.5zM266 33q75 0 123.5 42.5 t48.5 115.5q0 60 -42.5 103.5t-129.5 43.5q-80 0 -126.5 -39.5t-46.5 -107.5q0 -69 45.5 -113.5t127.5 -44.5zM266 378q71 0 112 36t41 97q0 72 -48 104.5t-105 32.5q-68 0 -111 -38t-43 -99q0 -62 41.5 -97.5t112.5 -35.5z" />
<glyph unicode="9" horiz-adv-x="531" d="M65 179h50q2 -71 35 -108.5t92 -37.5q61 0 100 40t55 103.5t19 157.5l-2 2q-73 -86 -173 -86q-82 0 -135 60t-53 154q0 100 56 163t145 63q212 0 212 -321q0 -69 -9.5 -129.5t-32 -119.5t-68 -94t-108.5 -35q-83 0 -130.5 50.5t-52.5 137.5zM416 387q0 123 -40.5 192 t-121.5 69q-68 0 -109 -48t-41 -135q0 -71 36.5 -122t107.5 -51q43 0 88 25.5t80 69.5z" />
<glyph unicode=":" horiz-adv-x="250" d="M97 380v93h56v-93h-56zM97 0v93h56v-93h-56z" />
<glyph unicode=";" horiz-adv-x="250" d="M97 0v93h56v-109q0 -107 -65 -110v36q20 0 26 18t8 72h-25zM97 380v93h56v-93h-56z" />
<glyph unicode="&#x3c;" horiz-adv-x="667" d="M132 321l463 -193v-50l-524 223v40l524 223v-50z" />
<glyph unicode="=" horiz-adv-x="667" d="M71 458h525v-45h-525v45zM71 231h525v-45h-525v45z" />
<glyph unicode="&#x3e;" horiz-adv-x="667" d="M535 321l-463 193v50l524 -223v-40l-524 -223v50z" />
<glyph unicode="?" horiz-adv-x="448" d="M189 184l-18 192l7 3q17 -4 36 -4q12 0 26 2q31 5 57 17t42.5 41t16.5 72q0 59 -40 98.5t-102 39.5t-99.5 -38.5t-37.5 -101.5h-47q0 82 51 133.5t134 51.5t137 -52.5t54 -133.5q0 -70 -47 -124q-45 -51 -125 -51h-9l-12 -145h-24zM227 93v-93h-56v93h56z" />
<glyph unicode="@" horiz-adv-x="802" d="M559 495h61l-83 -392q-4 -20 -4 -33q0 -7 1 -12q4 -14 22 -14q60 0 125.5 81.5t65.5 197.5q0 42 -8.5 82.5t-31.5 84t-58.5 76.5t-94.5 54t-134 21q-167 0 -273.5 -109.5t-106.5 -281.5q0 -170 106.5 -275t278.5 -105q214 0 328 153h50q-55 -90 -152.5 -141t-226.5 -51 q-190 0 -307 116t-117 304q0 87 28 164.5t79.5 137t133.5 94.5t182 35q93 0 165.5 -31.5t114.5 -83.5t63 -113.5t21 -127.5q0 -74 -25 -137.5t-63.5 -103.5t-81.5 -62.5t-82 -22.5q-59 0 -59 54q0 16 5 36l-2 2q-71 -92 -166 -92q-73 0 -121 58.5t-48 147.5q0 64 26 131 t85 118.5t138 51.5q98 0 149 -94zM519 326q0 60 -35 99t-90 39q-47 0 -85 -28t-59.5 -70t-32.5 -85t-11 -78q0 -67 35.5 -111.5t89.5 -44.5t99 48.5t67 112t22 118.5z" />
<glyph unicode="A" horiz-adv-x="656" d="M63 45l204 589h-85v45h292v-45h-85l207 -589h84v-45h-225v45h85l-75 213h-274l-73 -213h89v-45h-230v45h86zM207 303h243l-118 344h-7z" />
<glyph unicode="B" horiz-adv-x="563" d="M17 0v45h87v589h-87v45h271q56 0 97 -15t63 -41t32 -54.5t10 -61.5q0 -107 -100 -146v-2q135 -38 135 -165q0 -33 -10.5 -64t-34.5 -61.5t-72.5 -49.5t-114.5 -19h-276zM160 45h130q88 0 133.5 41t45.5 104q0 62 -44 102t-140 40h-125v-287zM160 377h114q76 0 118 36.5 t42 92.5q0 50 -35 89t-117 39h-122v-257z" />
<glyph unicode="C" horiz-adv-x="750" d="M673 248l44 -25q-34 -112 -116.5 -172.5t-200.5 -60.5q-151 0 -244.5 96.5t-93.5 251.5q0 164 97 258t235 94q77 0 143.5 -31.5t108.5 -87.5h2v108h46v-217h-47q-14 83 -88 131t-161 48q-123 0 -201.5 -84t-78.5 -215q0 -133 80 -218t204 -85q195 0 271 209z" />
<glyph unicode="D" horiz-adv-x="708" d="M9 0v45h94v589h-94v45h270q98 0 167.5 -19t118.5 -68q95 -95 95 -246q0 -166 -100 -266q-43 -43 -108.5 -61.5t-166.5 -18.5h-276zM159 45h128q165 0 237 72q80 80 80 227q0 135 -77 212q-44 44 -102 61t-140 17h-126v-589z" />
<glyph unicode="E" horiz-adv-x="604" d="M15 0v45h87v589h-87v45h544v-165h-46v120h-355v-264h282v-45h-282v-280h355v122h46v-167h-544z" />
<glyph unicode="F" horiz-adv-x="531" d="M15 0v45h88v589h-88v45h516v-166h-45v121h-327v-262h250v-45h-250v-282h90v-45h-234z" />
<glyph unicode="G" horiz-adv-x="792" d="M500 261v45h238q-1 -151 -98.5 -233.5t-238.5 -82.5q-154 0 -252.5 98t-98.5 251q0 151 96.5 251t242.5 100q79 0 148 -33t114 -93h2v115h45v-222h-45q-20 80 -94.5 132t-167.5 52q-124 0 -204.5 -84t-80.5 -215q0 -133 83 -218t213 -85q45 0 89.5 12.5t85.5 37.5 t69 69.5t34 102.5h-180z" />
<glyph unicode="H" horiz-adv-x="688" d="M20 0v45h82v589h-82v45h224v-45h-86v-256h371v256h-87v45h226v-45h-83v-589h83v-45h-226v45h87v288h-371v-288h86v-45h-224z" />
<glyph unicode="I" horiz-adv-x="281" d="M27 0v45h85v589h-85v45h227v-45h-86v-589h86v-45h-227z" />
<glyph unicode="J" horiz-adv-x="271" d="M-68 -201v49q50 -11 70 -11q63 0 85.5 27t22.5 82v688h-102v45h255v-45h-97v-681q0 -88 -42.5 -126.5t-124.5 -38.5q-36 0 -67 11z" />
<glyph unicode="K" horiz-adv-x="583" d="M14 0v45h89v589h-89v45h239v-45h-94v-589h94v-45h-239zM357 0v45h91l-282 312l282 277h-78v45h216v-45h-73l-275 -272l289 -317h72v-45h-242z" />
<glyph unicode="L" horiz-adv-x="510" d="M16 0v45h92v589h-92v45h239v-45h-91v-589h280v225h53v-270h-481z" />
<glyph unicode="M" horiz-adv-x="854" d="M19 0v45h88v589h-88v45h174l210 -508q13 -29 25 -72h2q7 32 20 64l211 516h175v-45h-84v-589h84v-45h-226v45h86v603h-2l-265 -648h-11l-262 648h-2v-603h81v-45h-216z" />
<glyph unicode="N" horiz-adv-x="708" d="M10 0v45h91v589h-91v45h160l390 -599h2v554h-95v45h231v-45h-89v-643h-52l-407 624h-2v-570h96v-45h-234z" />
<glyph unicode="O" horiz-adv-x="781" d="M50 340q0 152 96 251t245 99q148 0 244.5 -99t96.5 -251q0 -151 -95.5 -250.5t-238.5 -99.5q-154 0 -251 97.5t-97 252.5zM106 340q0 -131 80.5 -216t204.5 -85t204.5 85t80.5 216t-80.5 216t-204.5 85t-204.5 -85t-80.5 -216z" />
<glyph unicode="P" d="M16 0v45h90v589h-90v45h294q112 0 167.5 -56.5t55.5 -142.5q0 -84 -55 -142t-164 -58h-152v-235h92v-45h-238zM162 634v-309h128q187 0 187 150q0 78 -41 118.5t-140 40.5h-134z" />
<glyph unicode="Q" horiz-adv-x="781" d="M327 -3v2q-129 25 -203 117t-74 224q0 152 96 251t245 99q148 0 244.5 -99t96.5 -251q0 -145 -91.5 -244.5t-227.5 -103.5v-2q23 -6 59 -26t69 -31q20 -7 41 -7q13 0 26 3l-18 -47q-10 -1 -20 -1q-38 0 -72 16q-42 20 -82.5 42.5t-81.5 22.5q-49 0 -89 -29l-21 30 q41 34 103 34zM106 343q0 -129 79.5 -216t205.5 -87q122 0 203.5 86t81.5 216t-81 214.5t-204 84.5t-204 -85.5t-81 -212.5z" />
<glyph unicode="R" horiz-adv-x="573" d="M3 0v45h100v589h-100v45h333q88 0 136.5 -47.5t48.5 -119.5q0 -67 -40.5 -110.5t-115.5 -57.5l136 -299h87v-45h-126l-153 339h-150v-294h95v-45h-251zM159 384h141q165 0 165 127q0 57 -38.5 90t-105.5 33h-162v-250z" />
<glyph unicode="S" horiz-adv-x="542" d="M43 0v233h46v-23q0 -70 57 -120.5t135 -50.5q69 0 115 40t46 104q0 41 -22 69.5t-57 43.5t-77 26.5t-84.5 25t-77.5 32.5t-57 55t-22 87q0 71 55.5 119.5t142.5 48.5q53 0 99.5 -21t75.5 -58h2v68h45v-183h-45v14q0 52 -54 91.5t-125 39.5q-62 0 -103 -34t-41 -85 q0 -40 22 -67t57.5 -41.5t78 -25.5t85.5 -25t78.5 -34t57.5 -57.5t22 -91.5q0 -81 -62 -135.5t-154 -54.5q-60 0 -112 26.5t-79 72.5h-2v-89h-46z" />
<glyph unicode="T" horiz-adv-x="573" d="M166 0v45h93v589h-196v-169h-46v214h540v-214h-46v169h-196v-589h93v-45h-242z" />
<glyph unicode="U" horiz-adv-x="646" d="M90 634h-87v45h229v-45h-86v-436q0 -79 46 -119t128 -40q179 0 179 157v438h-86v45h229v-45h-87v-436q0 -52 -17 -91t-41 -60.5t-57 -35t-59 -17.5t-53 -4q-37 0 -70 6t-64.5 21t-54 38t-36 59.5t-13.5 83.5v436z" />
<glyph unicode="V" horiz-adv-x="656" d="M309 -7l-243 641h-88v45h230v-45h-85l214 -560l206 560h-83v45h219v-45h-88l-235 -641h-47z" />
<glyph unicode="W" horiz-adv-x="948" d="M257 -7l-192 641h-85v45h226v-45h-84l161 -562h2l144 562h-80v45h256v-45h-82l153 -562h2l156 562h-87v45h220v-45h-86l-185 -641h-44l-179 652h-2l-168 -652h-46z" />
<glyph unicode="X" horiz-adv-x="656" d="M14 0v45h94l187 297l-187 292h-94v45h239v-45h-81l151 -240l153 240h-84v45h228v-45h-90l-178 -283l195 -306h96v-45h-251v45h91l-160 254l-159 -254h89v-45h-239z" />
<glyph unicode="Y" horiz-adv-x="604" d="M183 0v45h94v261l-208 328h-88v45h242v-45h-89l176 -279l177 279h-88v45h224v-45h-82l-208 -328v-261h97v-45h-247z" />
<glyph unicode="Z" d="M27 0v45l416 589h-349v-120h-45v165h461v-45l-416 -589h381v130h46v-175h-494z" />
<glyph unicode="[" horiz-adv-x="344" d="M169 634v-790h159v-45h-211v880h211v-45h-159z" />
<glyph unicode="\" horiz-adv-x="281" d="M47 679l234 -693h-47l-234 693h47z" />
<glyph unicode="]" horiz-adv-x="344" d="M175 634h-159v45h211v-880h-211v45h159v790z" />
<glyph unicode="^" horiz-adv-x="656" d="M328 690l219 -262l-32 -27l-187 225l-188 -225l-30 27z" />
<glyph unicode="_" horiz-adv-x="500" d="M-6 -75h512v-50h-512v50z" />
<glyph unicode="`" horiz-adv-x="333" d="M202 536l-119 155h57l100 -155h-38z" />
<glyph unicode="a" horiz-adv-x="510" d="M370 0v68q-88 -75 -175 -75q-60 0 -102 41t-42 99q0 64 49.5 105t125.5 41q69 0 144 -39v110q0 99 -126 99q-108 0 -146 -81l-39 10q28 57 72.5 82.5t116.5 25.5q88 0 131 -35.5t43 -98.5v-307h78v-45h-130zM370 112v86q-73 42 -135 42q-58 0 -94.5 -30.5t-36.5 -79.5 q0 -42 29.5 -69.5t74.5 -27.5q41 0 87 22.5t75 56.5z" />
<glyph unicode="b" horiz-adv-x="615" d="M14 0v45h86v589h-86v45h138v-301h2q62 108 187 108q101 0 166 -68t65 -174q0 -109 -66 -180t-168 -71q-118 0 -184 99h-2v-92h-138zM151 241q0 -91 51.5 -148t133.5 -57q81 0 132 58t51 150q0 88 -50.5 143.5t-129.5 55.5q-81 0 -134.5 -57.5t-53.5 -144.5z" />
<glyph unicode="c" horiz-adv-x="510" d="M438 146l42 -18q-26 -67 -80.5 -104.5t-124.5 -37.5q-103 0 -168.5 69t-65.5 176t65 178t162 71q99 0 150 -69h2v62h43v-180h-43q0 63 -44 101.5t-106 38.5q-78 0 -127 -55t-49 -143q0 -91 50 -146.5t130 -55.5q114 0 164 113z" />
<glyph unicode="d" horiz-adv-x="594" d="M591 0h-138v92h-2q-65 -99 -182 -99q-101 0 -167 69.5t-66 175.5t66 177t164 71q59 0 107.5 -28t77.5 -80h2v256h-92v45h144v-634h86v-45zM454 239q0 86 -54 145t-133 59q-77 0 -129.5 -59t-52.5 -145q0 -87 52.5 -145t131.5 -58q82 0 133.5 57t51.5 146z" />
<glyph unicode="e" d="M517 225h-425q0 -82 58 -139.5t141 -57.5q113 0 185 103l41 -19q-35 -59 -97 -92.5t-135 -33.5q-107 0 -176 70.5t-69 179.5q0 110 67.5 180t173.5 70q104 0 169 -71.5t67 -189.5zM93 270h370q-13 82 -62.5 127t-123.5 45q-73 0 -121.5 -46t-62.5 -126z" />
<glyph unicode="f" horiz-adv-x="250" d="M23 0v45h73v383h-73v45h73v87q0 65 36 97.5t81 32.5q42 0 71.5 -25.5t39.5 -69.5l-47 -7q-10 30 -25.5 43.5t-40.5 13.5q-31 0 -47 -20.5t-16 -55.5v-96h93v-45h-93v-383h93v-45h-218z" />
<glyph unicode="g" horiz-adv-x="594" d="M461 -17v116h-2q-27 -50 -76.5 -78t-110.5 -28q-100 0 -166.5 68.5t-66.5 170.5q0 104 68.5 176t166.5 72q120 0 185 -108h2v101h140v-45h-88v-440q0 -58 -23.5 -102t-61 -66.5t-76 -33t-76.5 -10.5q-117 0 -184 67l34 34q63 -54 155 -54q30 0 59 7.5t57.5 24.5t46 50 t17.5 78zM92 234q0 -86 51.5 -141.5t131.5 -55.5t133.5 57t53.5 143q0 83 -54.5 140.5t-132.5 57.5t-130.5 -57.5t-52.5 -143.5z" />
<glyph unicode="h" horiz-adv-x="542" d="M13 0v45h86v589h-86v45h138v-270q89 77 179 77q57 0 93 -31.5t36 -93.5v-316h77v-45h-213v45h84v305q0 89 -83 89q-38 0 -85.5 -22.5t-87.5 -59.5v-312h78v-45h-216z" />
<glyph unicode="i" horiz-adv-x="250" d="M24 0v45h83v383h-83v45h135v-428h81v-45h-216zM78 650q0 16 12 28t28 12q17 0 29 -12t12 -28t-12.5 -28.5t-28.5 -12.5t-28 12t-12 29z" />
<glyph unicode="j" horiz-adv-x="240" d="M109 428h-87v45h139v-530q0 -88 -55 -122q-41 -26 -103 -26q-21 0 -43 3v45q21 -2 39 -2q49 0 75 17q35 24 35 100v470zM120 690q17 0 29 -12t12 -28t-12.5 -28.5t-28.5 -12.5t-28 12t-12 29q0 16 12 28t28 12z" />
<glyph unicode="k" horiz-adv-x="521" d="M13 0v45h87v589h-87v45h139v-428l249 175v2h-72v45h197v-45h-61l-249 -177l236 -206h83v-45h-103l-280 244v-199h87v-45h-226z" />
<glyph unicode="l" horiz-adv-x="240" d="M9 0v45h85v589h-86v45h138v-634h85v-45h-222z" />
<glyph unicode="m" horiz-adv-x="844" d="M15 0v45h83v383h-83v45h135v-73q86 80 177 80q46 0 77 -22t43 -62q92 84 184 84q58 0 90.5 -32.5t32.5 -95.5v-307h76v-45h-209v45h81v302q0 86 -78 86q-86 0 -172 -86v-302h78v-45h-211v45h81v302q0 86 -76 86q-42 0 -81.5 -19.5t-92.5 -66.5v-302h78v-45h-213z" />
<glyph unicode="n" horiz-adv-x="531" d="M7 0v45h87v383h-87v45h139v-73q96 80 178 80q57 0 92.5 -33t35.5 -90v-312h76v-45h-212v45h84v298q0 90 -79 90q-39 0 -86.5 -23t-88.5 -62v-303h77v-45h-216z" />
<glyph unicode="o" d="M41 236q0 107 67.5 178.5t167.5 71.5q101 0 168.5 -72t67.5 -178t-67.5 -178t-168.5 -72q-100 0 -167.5 71.5t-67.5 178.5zM94 236q0 -88 51.5 -145.5t130.5 -57.5t131 57.5t52 145.5t-52 145.5t-131 57.5t-130.5 -57.5t-51.5 -145.5z" />
<glyph unicode="p" horiz-adv-x="594" d="M84 -167v595h-80v45h132v-100h2q27 50 76 78.5t108 28.5q98 0 164 -70t66 -175q0 -110 -65 -179.5t-168 -69.5q-127 0 -181 108h-2v-261h86v-45h-224v45h86zM134 235q0 -89 52 -145.5t134 -56.5q81 0 132 56t51 146q0 88 -53 144t-135 56q-79 0 -130 -56t-51 -144z" />
<glyph unicode="q" horiz-adv-x="594" d="M509 -167h87v-45h-224v45h85v261h-2q-53 -108 -180 -108q-103 0 -168 69.5t-65 178.5q0 105 65.5 175.5t164.5 70.5q58 0 106.5 -28t76.5 -77h2v98h139v-45h-87v-595zM459 235q0 88 -50.5 144t-129.5 56q-83 0 -135.5 -56.5t-52.5 -145.5t51 -144.5t132 -55.5t133 57 t52 145z" />
<glyph unicode="r" horiz-adv-x="396" d="M22 0v45h90v383h-90v45h142v-116h2q25 64 82 96q48 28 114 28q10 0 21 -1v-50h-10q-59 0 -100 -11q-44 -12 -67.5 -38.5t-32.5 -59t-9 -80.5v-196h97v-45h-239z" />
<glyph unicode="s" horiz-adv-x="448" d="M38 0v164h46q0 -59 40.5 -95t106.5 -36q58 0 95 26.5t37 67.5q0 39 -31 59t-74.5 28t-87.5 17.5t-75 38.5t-31 81q0 55 42.5 92t105.5 37q84 0 130 -62h2v55h44v-155h-44q-2 52 -38.5 85.5t-91.5 33.5q-51 0 -77 -27t-26 -60q0 -30 22 -48.5t55.5 -24.5t72 -15t72 -19.5 t55.5 -39t22 -72.5q0 -63 -49 -100.5t-131 -37.5q-100 0 -144 66h-2v-59h-46z" />
<glyph unicode="t" horiz-adv-x="260" d="M87 428h-84v45h84v106l52 41v-147h99v-45h-99v-330q0 -23 3 -35t13 -20t29.5 -7t53.5 9v-45q-36 -12 -65 -12q-25 0 -45 9q-41 19 -41 79v352z" />
<glyph unicode="u" horiz-adv-x="542" d="M401 0v68q-87 -75 -186 -75q-55 0 -87 32t-32 85v318h-83v45h135v-350q0 -83 77 -83q42 0 89.5 23t86.5 63v302h-83v45h135v-428h81v-45h-133z" />
<glyph unicode="v" horiz-adv-x="521" d="M243 -7l-167 435h-78v45h196v-45h-65l95 -255q30 -81 41 -128h2q17 61 31 100l104 283h-66v45h187v-45h-72l-160 -435h-48z" />
<glyph unicode="w" horiz-adv-x="750" d="M200 -7l-135 435h-62v45h166v-45h-55l75 -245q28 -92 34 -130h2q11 63 33 130l78 245h-55v45h179v-45h-53l67 -213q30 -98 41 -166h2q2 37 39 151l76 228h-62v45h177v-45h-65l-141 -435h-48l-122 411h-2l-118 -411h-51z" />
<glyph unicode="x" horiz-adv-x="531" d="M18 0v45h64l152 199l-147 184h-61v45h176v-45h-56l117 -147l115 147h-51v45h174v-45h-64l-144 -184l161 -199h60v-45h-176v45h58l-133 163l-123 -163h62v-45h-184z" />
<glyph unicode="y" horiz-adv-x="531" d="M184 -167l66 180l-170 415h-78v45h206v-45h-77l144 -352l133 352h-75v45h197v-45h-72l-242 -640h-132v45h100z" />
<glyph unicode="z" horiz-adv-x="479" d="M45 0v45l333 383h-268v-123h-41v168h366v-45l-333 -383h291v128h42v-173h-390z" />
<glyph unicode="{" horiz-adv-x="333" d="M48 266q48 0 71 39t23 104v120q0 82 41 119q36 33 88 33q7 0 14 -1v-54q-39 -1 -55.5 -9.5t-24.5 -35.5t-8 -87v-69q0 -77 -22 -123t-74 -68q52 -22 74 -68t22 -123v-69q0 -60 8 -87t24.5 -35.5t55.5 -9.5v-54q-7 -1 -14 -1q-52 0 -88 33q-41 37 -41 119v120 q0 65 -23 104t-71 39v64z" />
<glyph unicode="|" horiz-adv-x="496" d="M222 679h52v-903h-52v903z" />
<glyph unicode="}" horiz-adv-x="333" d="M285 266v-64q-48 0 -71 -39t-23 -104v-120q0 -82 -41 -119q-36 -33 -88 -33q-7 0 -14 1v54q39 1 55.5 9.5t24.5 35.5t8 87v69q0 77 22 123t74 68q-52 22 -74 68t-22 123v69q0 60 -8 87t-24.5 35.5t-55.5 9.5v54q7 1 14 1q52 0 88 -33q41 -37 41 -119v-120q0 -65 23 -104 t71 -39z" />
<glyph unicode="~" horiz-adv-x="656" d="M66 291v54q81 59 140 59q40 0 126 -38q88 -39 120 -39q28 0 57 13.5t82 50.5v-54q-83 -59 -137 -59q-42 0 -128 39q-84 38 -120 38q-31 0 -58.5 -12.5t-81.5 -51.5z" />
<glyph unicode="&#xa1;" horiz-adv-x="250" d="M97 380v93h56v-93h-56zM99 -206v212l12 287h28l12 -287v-212h-52z" />
<glyph unicode="&#xa2;" horiz-adv-x="510" d="M134 -212l55 212q-67 24 -107.5 87t-40.5 144q0 120 83 195q61 54 133 54q26 0 54 -7l50 196h33l-52 -203q49 -17 76 -55h2v62h43v-180h-43q-4 94 -89 129l-100 -385q23 -4 44 -4q113 0 163 113l42 -18q-29 -74 -98 -114q-47 -28 -105 -28q-27 0 -57 6l-52 -204h-34z M202 47l98 383q-16 2 -32 2q-76 0 -120 -50q-54 -61 -54 -146q0 -64 30.5 -116.5t77.5 -72.5z" />
<glyph unicode="&#xa3;" horiz-adv-x="521" d="M54 313v45h120q-52 111 -52 178q0 69 46.5 111.5t121.5 42.5q79 0 123.5 -42.5t46.5 -121.5h-49q-2 58 -33.5 90t-87.5 32q-52 0 -84.5 -30t-32.5 -77q0 -56 52 -183h131v-45h-116q22 -59 22 -120q0 -39 -9 -80l53 -45q16 -13 38 -24t42 -11q37 0 55 28t19 89h41 q1 -74 -30 -116.5t-83 -42.5q-66 0 -148 82q-38 -82 -108 -82q-39 0 -64 25t-25 63t27 63.5t69 25.5q38 0 79 -28q4 17 4 36q0 56 -33 137h-135zM209 100q-30 32 -68 32q-26 0 -43.5 -16t-17.5 -39q0 -21 14.5 -35.5t36.5 -14.5q48 0 78 73z" />
<glyph unicode="&#xa4;" horiz-adv-x="667" d="M533 572l31 -33l-63 -63q48 -59 48 -135q0 -28 -11.5 -67t-36.5 -69l63 -62l-31 -32l-64 62q-62 -47 -137 -47q-72 0 -134 47l-62 -62l-32 32l61 62q-47 64 -47 137q0 69 47 134l-61 63l32 33l62 -64q71 49 137 49q69 0 134 -49zM333 510q-70 0 -119 -49t-49 -119 t49 -119.5t119 -49.5t119.5 49.5t49.5 119.5t-49.5 119t-119.5 49z" />
<glyph unicode="&#xa5;" d="M211 516h147l58 118h-88v45h224v-45h-82l-57 -118h139v-45h-163l-57 -120h220v-45h-248v-261h97v-45h-247v45h94v261h-248v45h219l-55 120h-164v45h147l-59 118h-88v45h242v-45h-89zM335 471h-107l53 -116z" />
<glyph unicode="&#xa6;" horiz-adv-x="496" d="M222 -224v365h52v-365h-52zM222 315v364h52v-364h-52z" />
<glyph unicode="&#xa7;" horiz-adv-x="438" d="M53 -39h49q0 -57 36 -93.5t93 -36.5q56 0 91 33.5t35 80.5q0 36 -25.5 64t-63.5 45l-82 36q-44 20 -81.5 40t-63 56t-25.5 82q0 40 19.5 73t66.5 71q-66 47 -66 127q0 65 48.5 108t121.5 43q42 0 79.5 -13.5t69 -53t33.5 -100.5h-47q-3 61 -41.5 93t-94.5 32 q-53 0 -87 -30.5t-34 -76.5q0 -39 25 -69t63 -47l80 -37q44 -20 81.5 -39t62.5 -53.5t25 -80.5q0 -41 -23.5 -80.5t-63.5 -65.5q68 -41 68 -124q0 -71 -47.5 -114t-125.5 -43q-77 0 -127 48.5t-49 124.5zM300 90q73 49 73 119q0 30 -9.5 50.5t-33.5 37t-47 27t-69 29.5 t-79 36q-71 -47 -71 -114q0 -31 15 -55.5t43 -42.5t56 -31l64 -28q37 -16 58 -28z" />
<glyph unicode="&#xa8;" horiz-adv-x="333" d="M253 646q14 0 24 -10t10 -24t-10 -24t-24 -10t-24 10t-10 24t10 24t24 10zM80 646q14 0 24 -10t10 -24t-10 -24t-24 -10t-24 10t-10 24t10 24t24 10z" />
<glyph unicode="&#xa9;" horiz-adv-x="802" d="M563 451l-47 -14q-34 81 -110 81q-61 0 -99 -43.5t-38 -113.5q0 -77 36.5 -126t95.5 -49q88 0 122 100l44 -16q-19 -69 -66 -98.5t-98 -29.5q-82 0 -134.5 62t-52.5 152q0 79 49.5 140.5t140.5 61.5q102 0 157 -107zM401 728q155 0 264 -109t109 -264t-109 -264 t-264 -109t-264 109t-109 264t109 264t264 109zM400 29q135 0 230.5 95.5t95.5 230.5t-95.5 230.5t-230.5 95.5t-230.5 -95.5t-95.5 -230.5t95.5 -230.5t230.5 -95.5z" />
<glyph unicode="&#xaa;" horiz-adv-x="333" d="M245 398v41q-60 -45 -113 -45q-40 0 -67 24.5t-27 60.5q0 38 32 62.5t81 24.5q46 0 94 -24v62q0 63 -82 63q-70 0 -95 -48l-26 6q36 65 122 65q60 0 87.5 -21.5t27.5 -68.5v-175h50v-27h-84zM245 465v52q-46 25 -87 25q-38 0 -62 -18.5t-24 -47.5q0 -26 19 -42t49 -16 q26 0 56 13.5t49 33.5z" />
<glyph unicode="&#xab;" horiz-adv-x="469" d="M301 239l152 -239h-55l-153 239l153 239h55zM88 239l152 -239h-55l-153 239l153 239h55z" />
<glyph unicode="&#xac;" horiz-adv-x="667" d="M71 463h525v-283h-45v238h-480v45z" />
<glyph unicode="&#xad;" horiz-adv-x="344" d="M34 214v45h275v-45h-275z" />
<glyph unicode="&#xae;" horiz-adv-x="802" d="M250 547h165q63 0 98.5 -28t35.5 -77q0 -45 -32 -76.5t-85 -32.5v-2q44 -16 65 -44.5t66 -131.5h-59q-48 111 -79 140.5t-101 29.5h-22v-170h-52v392zM302 366h65q68 0 97 16.5t29 56.5q0 39 -25.5 53.5t-93.5 14.5h-72v-141zM401 728q155 0 264 -109t109 -264t-109 -264 t-264 -109t-264 109t-109 264t109 264t264 109zM400 29q135 0 230.5 95.5t95.5 230.5t-95.5 230.5t-230.5 95.5t-230.5 -95.5t-95.5 -230.5t95.5 -230.5t230.5 -95.5z" />
<glyph unicode="&#xaf;" horiz-adv-x="333" d="M6 600v29h321v-29h-321z" />
<glyph unicode="&#xb0;" horiz-adv-x="396" d="M198 690q58 0 99.5 -41t41.5 -100t-41.5 -100t-99.5 -41t-99.5 41t-41.5 100t41.5 100t99.5 41zM198 650q-43 0 -72 -30.5t-29 -70.5q0 -39 28.5 -70t72.5 -31q40 0 70.5 29t30.5 72q0 32 -27 66.5t-74 34.5z" />
<glyph unicode="&#xb1;" horiz-adv-x="667" d="M71 27h525v-45h-525v45zM356 421h240v-45h-240v-240h-45v240h-240v45h240v240h45v-240z" />
<glyph unicode="&#xb2;" horiz-adv-x="323" d="M276 446l-4 -114h-247q0 70 58 128q20 20 49.5 38.5t49 28.5t34 27.5t14.5 41.5q0 30 -20.5 48t-54.5 18q-40 0 -62 -24q-19 -22 -19 -60v-11h-39q-1 9 -1 18q0 44 30 71q35 34 91 34q53 0 84 -26t31 -69q0 -40 -22.5 -62t-66 -45t-68.5 -48q-38 -38 -46 -78h168l3 84h38 z" />
<glyph unicode="&#xb3;" horiz-adv-x="323" d="M27 445h39q12 -89 98 -89q41 0 66 20.5t25 54.5q0 36 -32 57q-23 15 -60 15q-14 0 -30 -2v29q9 -1 17 -1q33 0 55 17q27 20 27 52q0 28 -20 46t-52 18q-33 0 -51.5 -19t-17.5 -53h-41q1 45 30.5 72.5t78.5 27.5q50 0 82 -26.5t32 -67.5q0 -54 -53 -77q76 -24 76 -89 q0 -44 -38 -73.5t-95 -29.5q-59 0 -96.5 32.5t-39.5 85.5z" />
<glyph unicode="&#xb4;" horiz-adv-x="333" d="M131 536h-38l100 155h57z" />
<glyph unicode="&#xb5;" d="M104 473h49v-239q0 -103 37 -148.5t90 -45.5q126 0 126 199v234h49v-473h-49v58h-2q-50 -70 -126 -70q-38 0 -66.5 16t-56.5 54h-2v-270h-49v685z" />
<glyph unicode="&#xb6;" horiz-adv-x="646" d="M618 679v-67h-95v-824h-63v824h-130v-824h-64v478q-104 0 -161.5 61t-57.5 148q0 93 63.5 148.5t170.5 55.5h337z" />
<glyph unicode="&#xb7;" horiz-adv-x="292" d="M118 287v93h56v-93h-56z" />
<glyph unicode="&#xb8;" horiz-adv-x="333" d="M127 -80l14 73h32l-7 -36q34 -4 53.5 -24.5t19.5 -52.5q0 -50 -45 -72q-41 -20 -109 -20h-13v32q12 -1 22 -1q34 0 60 9q35 13 35 46q0 39 -62 46z" />
<glyph unicode="&#xb9;" horiz-adv-x="323" d="M84 332v29h56v294h-56v29h99v-323h56v-29h-155z" />
<glyph unicode="&#xba;" horiz-adv-x="354" d="M24 540q0 64 44 107t109 43t109 -43t44 -107t-43.5 -107t-108.5 -43q-66 0 -110 43t-44 107zM59 540q0 -53 33.5 -87.5t85.5 -34.5q51 0 84.5 34.5t33.5 87.5t-33.5 87.5t-84.5 34.5q-52 0 -85.5 -34.5t-33.5 -87.5z" />
<glyph unicode="&#xbb;" horiz-adv-x="469" d="M381 239l-152 239h55l153 -239l-153 -239h-55zM168 239l-152 239h55l153 -239l-153 -239h-55z" />
<glyph unicode="&#xbc;" horiz-adv-x="844" d="M560 0v27h44v75h-153q-4 15 -16 22l169 231h39v-227h65v-26h-65v-75h35v-27h-118zM125 0l478 679h35l-478 -679h-35zM604 128v171h-2l-125 -171h127zM85 332v29h56v294h-56v29h99v-323h56v-29h-155z" />
<glyph unicode="&#xbd;" horiz-adv-x="844" d="M84 332v29h56v294h-56v29h99v-323h56v-29h-155zM125 0l478 679h35l-478 -679h-35zM749 114l-4 -114h-247q0 70 58 128q20 20 49.5 38.5t49 28.5t34 27.5t14.5 41.5q0 30 -20.5 48t-54.5 18q-40 0 -62 -24q-19 -22 -19 -60v-11h-39q-1 9 -1 18q0 44 29 71q36 34 92 34 q53 0 84 -26t31 -69q0 -40 -22.5 -62t-66 -45t-68.5 -48q-38 -38 -46 -78h168l3 84h38z" />
<glyph unicode="&#xbe;" horiz-adv-x="844" d="M635 0v27h44v75h-153q-4 15 -16 22l169 231h39v-227h65v-26h-65v-75h35v-27h-118zM200 0l478 679h35l-478 -679h-35zM679 128v171h-2l-125 -171h127zM63 445h39q12 -89 98 -89q41 0 66 20.5t25 54.5q0 36 -32 57q-23 15 -60 15q-14 0 -30 -2v29q9 -1 17 -1q33 0 55 17 q27 20 27 52q0 28 -20 46t-52 18q-33 0 -51.5 -19t-17.5 -53h-41q1 45 30.5 72.5t78.5 27.5q50 0 82 -26.5t32 -67.5q0 -54 -53 -77q76 -24 76 -89q0 -44 -38 -73.5t-95 -29.5q-59 0 -96.5 32.5t-39.5 85.5z" />
<glyph unicode="&#xbf;" horiz-adv-x="448" d="M259 289l18 -192l-7 -3q-17 4 -36 4q-12 0 -26 -2q-31 -5 -57 -17t-42.5 -41t-16.5 -72q0 -59 40 -98.5t102 -39.5t99.5 38.5t37.5 101.5h47q0 -82 -51 -133.5t-134 -51.5t-137 52.5t-54 133.5q0 70 47 124q45 51 125 51h9l12 145h24zM221 380v93h56v-93h-56z" />
<glyph unicode="&#xc0;" horiz-adv-x="656" d="M63 45l204 589h-85v45h292v-45h-85l207 -589h84v-45h-225v45h85l-75 213h-274l-73 -213h89v-45h-230v45h86zM207 303h243l-118 344h-7zM364 739l-119 155h57l100 -155h-38z" />
<glyph unicode="&#xc1;" horiz-adv-x="656" d="M63 45l204 589h-85v45h292v-45h-85l207 -589h84v-45h-225v45h85l-75 213h-274l-73 -213h89v-45h-230v45h86zM207 303h243l-118 344h-7zM293 739h-38l100 155h57z" />
<glyph unicode="&#xc2;" horiz-adv-x="656" d="M63 45l204 589h-85v45h292v-45h-85l207 -589h84v-45h-225v45h85l-75 213h-274l-73 -213h89v-45h-230v45h86zM207 303h243l-118 344h-7zM181 743l118 145h50l127 -145h-37l-115 101l-108 -101h-35z" />
<glyph unicode="&#xc3;" horiz-adv-x="656" d="M63 45l204 589h-85v45h292v-45h-85l207 -589h84v-45h-225v45h85l-75 213h-274l-73 -213h89v-45h-230v45h86zM207 303h243l-118 344h-7zM194 772h-27q28 88 88 88q27 0 75 -24t75 -24q38 0 59 47h26q-10 -40 -35 -63.5t-57 -23.5q-28 0 -76 24t-70 24q-40 0 -58 -48z" />
<glyph unicode="&#xc4;" horiz-adv-x="656" d="M63 45l204 589h-85v45h292v-45h-85l207 -589h84v-45h-225v45h85l-75 213h-274l-73 -213h89v-45h-230v45h86zM207 303h243l-118 344h-7zM415 849q14 0 24 -10t10 -24t-10 -24t-24 -10t-24 10t-10 24t10 24t24 10zM242 849q14 0 24 -10t10 -24t-10 -24t-24 -10t-24 10 t-10 24t10 24t24 10z" />
<glyph unicode="&#xc5;" horiz-adv-x="656" d="M63 45l204 589h-85v45h292v-45h-85l207 -589h84v-45h-225v45h85l-75 213h-274l-73 -213h89v-45h-230v45h86zM207 303h243l-118 344h-7zM328 906q38 0 65 -26.5t27 -64.5t-27 -65t-65 -27t-64.5 27t-26.5 65t26.5 64.5t64.5 26.5zM328 876q-26 0 -43.5 -17.5t-17.5 -43.5 t18 -44t43 -18q26 0 44 18t18 44q0 25 -18 43t-44 18z" />
<glyph unicode="&#xc6;" horiz-adv-x="938" d="M-61 0v45h72l324 589h-112v45h670v-165h-46v120h-357v-263h285v-45h-285v-281h357v122h46v-167h-572v45h113v281h-211l-156 -281h79v-45h-207zM246 371h188v263h-43z" />
<glyph unicode="&#xc7;" horiz-adv-x="750" d="M327 -70l12 65q-126 19 -201.5 112t-75.5 231q0 164 97 258t235 94q77 0 143.5 -31.5t108.5 -87.5h2v108h46v-217h-47q-14 83 -88 131t-161 48q-123 0 -201.5 -84t-78.5 -215q0 -133 80 -218t204 -85q195 0 271 209l44 -25q-34 -112 -116.5 -172.5t-200.5 -60.5 q-20 0 -29 1l-5 -24q34 -4 53.5 -24.5t19.5 -52.5q0 -50 -45 -72q-41 -20 -109 -20h-13v32q12 -1 22 -1q34 0 60 9q35 13 35 46q0 39 -62 46z" />
<glyph unicode="&#xc8;" horiz-adv-x="604" d="M15 0v45h87v589h-87v45h544v-165h-46v120h-355v-264h282v-45h-282v-280h355v122h46v-167h-544zM338 739l-119 155h57l100 -155h-38z" />
<glyph unicode="&#xc9;" horiz-adv-x="604" d="M15 0v45h87v589h-87v45h544v-165h-46v120h-355v-264h282v-45h-282v-280h355v122h46v-167h-544zM267 739h-38l100 155h57z" />
<glyph unicode="&#xca;" horiz-adv-x="604" d="M15 0v45h87v589h-87v45h544v-165h-46v120h-355v-264h282v-45h-282v-280h355v122h46v-167h-544zM155 743l118 145h50l127 -145h-37l-115 101l-108 -101h-35z" />
<glyph unicode="&#xcb;" horiz-adv-x="604" d="M15 0v45h87v589h-87v45h544v-165h-46v120h-355v-264h282v-45h-282v-280h355v122h46v-167h-544zM389 849q14 0 24 -10t10 -24t-10 -24t-24 -10t-24 10t-10 24t10 24t24 10zM216 849q14 0 24 -10t10 -24t-10 -24t-24 -10t-24 10t-10 24t10 24t24 10z" />
<glyph unicode="&#xcc;" horiz-adv-x="281" d="M27 0v45h85v589h-85v45h227v-45h-86v-589h86v-45h-227zM176 739l-119 155h57l100 -155h-38z" />
<glyph unicode="&#xcd;" horiz-adv-x="281" d="M27 0v45h85v589h-85v45h227v-45h-86v-589h86v-45h-227zM105 739h-38l100 155h57z" />
<glyph unicode="&#xce;" horiz-adv-x="281" d="M27 0v45h85v589h-85v45h227v-45h-86v-589h86v-45h-227zM-7 743l118 145h50l127 -145h-37l-115 101l-108 -101h-35z" />
<glyph unicode="&#xcf;" horiz-adv-x="281" d="M27 0v45h85v589h-85v45h227v-45h-86v-589h86v-45h-227zM227 849q14 0 24 -10t10 -24t-10 -24t-24 -10t-24 10t-10 24t10 24t24 10zM54 849q14 0 24 -10t10 -24t-10 -24t-24 -10t-24 10t-10 24t10 24t24 10z" />
<glyph unicode="&#xd0;" horiz-adv-x="708" d="M9 0v45h94v273h-94v45h94v271h-94v45h270q98 0 167.5 -19t118.5 -68q95 -95 95 -246q0 -166 -100 -266q-43 -43 -108.5 -61.5t-166.5 -18.5h-276zM159 45h128q165 0 237 72q80 80 80 227q0 135 -77 212q-44 44 -102 61t-140 17h-126v-271h208v-45h-208v-273z" />
<glyph unicode="&#xd1;" horiz-adv-x="708" d="M10 0v45h91v589h-91v45h160l390 -599h2v554h-95v45h231v-45h-89v-643h-52l-407 624h-2v-570h96v-45h-234zM220 772h-27q28 88 88 88q27 0 75 -24t75 -24q38 0 59 47h26q-10 -40 -35 -63.5t-57 -23.5q-28 0 -76 24t-70 24q-40 0 -58 -48z" />
<glyph unicode="&#xd2;" horiz-adv-x="781" d="M50 340q0 152 96 251t245 99q148 0 244.5 -99t96.5 -251q0 -151 -95.5 -250.5t-238.5 -99.5q-154 0 -251 97.5t-97 252.5zM106 340q0 -131 80.5 -216t204.5 -85t204.5 85t80.5 216t-80.5 216t-204.5 85t-204.5 -85t-80.5 -216zM426 739l-119 155h57l100 -155h-38z" />
<glyph unicode="&#xd3;" horiz-adv-x="781" d="M50 340q0 152 96 251t245 99q148 0 244.5 -99t96.5 -251q0 -151 -95.5 -250.5t-238.5 -99.5q-154 0 -251 97.5t-97 252.5zM106 340q0 -131 80.5 -216t204.5 -85t204.5 85t80.5 216t-80.5 216t-204.5 85t-204.5 -85t-80.5 -216zM355 739h-38l100 155h57z" />
<glyph unicode="&#xd4;" horiz-adv-x="781" d="M50 340q0 152 96 251t245 99q148 0 244.5 -99t96.5 -251q0 -151 -95.5 -250.5t-238.5 -99.5q-154 0 -251 97.5t-97 252.5zM106 340q0 -131 80.5 -216t204.5 -85t204.5 85t80.5 216t-80.5 216t-204.5 85t-204.5 -85t-80.5 -216zM243 743l118 145h50l127 -145h-37l-115 101 l-108 -101h-35z" />
<glyph unicode="&#xd5;" horiz-adv-x="781" d="M50 340q0 152 96 251t245 99q148 0 244.5 -99t96.5 -251q0 -151 -95.5 -250.5t-238.5 -99.5q-154 0 -251 97.5t-97 252.5zM106 340q0 -131 80.5 -216t204.5 -85t204.5 85t80.5 216t-80.5 216t-204.5 85t-204.5 -85t-80.5 -216zM256 772h-27q28 88 88 88q27 0 75 -24 t75 -24q38 0 59 47h26q-10 -40 -35 -63.5t-57 -23.5q-28 0 -76 24t-70 24q-40 0 -58 -48z" />
<glyph unicode="&#xd6;" horiz-adv-x="781" d="M50 340q0 152 96 251t245 99q148 0 244.5 -99t96.5 -251q0 -151 -95.5 -250.5t-238.5 -99.5q-154 0 -251 97.5t-97 252.5zM106 340q0 -131 80.5 -216t204.5 -85t204.5 85t80.5 216t-80.5 216t-204.5 85t-204.5 -85t-80.5 -216zM477 849q14 0 24 -10t10 -24t-10 -24 t-24 -10t-24 10t-10 24t10 24t24 10zM304 849q14 0 24 -10t10 -24t-10 -24t-24 -10t-24 10t-10 24t10 24t24 10z" />
<glyph unicode="&#xd7;" horiz-adv-x="668" d="M334 289l-207 -206l-32 32l206 206l-206 206l32 32l206 -207l207 207l32 -32l-206 -206l206 -206l-32 -32z" />
<glyph unicode="&#xd8;" horiz-adv-x="781" d="M611 614l62 71l26 -23l-64 -72q97 -94 97 -248q0 -66 -21 -127t-61 -112t-107.5 -82t-151.5 -31q-75 0 -122.5 16.5t-94.5 57.5l-62 -69l-26 22l62 71q-98 101 -98 250q0 66 21.5 128t62.5 112.5t107.5 81t149.5 30.5q67 0 115.5 -16.5t104.5 -59.5zM183 128l393 447 q-48 37 -87.5 51.5t-94.5 14.5q-128 0 -208 -85t-80 -220q0 -63 17.5 -111.5t59.5 -96.5zM602 551l-393 -447q72 -65 178 -65q75 0 133.5 29t91 76t48.5 97.5t16 100.5q0 129 -74 209z" />
<glyph unicode="&#xd9;" horiz-adv-x="646" d="M90 634h-87v45h229v-45h-86v-436q0 -79 46 -119t128 -40q179 0 179 157v438h-86v45h229v-45h-87v-436q0 -52 -17 -91t-41 -60.5t-57 -35t-59 -17.5t-53 -4q-37 0 -70 6t-64.5 21t-54 38t-36 59.5t-13.5 83.5v436zM359 739l-119 155h57l100 -155h-38z" />
<glyph unicode="&#xda;" horiz-adv-x="646" d="M90 634h-87v45h229v-45h-86v-436q0 -79 46 -119t128 -40q179 0 179 157v438h-86v45h229v-45h-87v-436q0 -52 -17 -91t-41 -60.5t-57 -35t-59 -17.5t-53 -4q-37 0 -70 6t-64.5 21t-54 38t-36 59.5t-13.5 83.5v436zM288 739h-38l100 155h57z" />
<glyph unicode="&#xdb;" horiz-adv-x="646" d="M90 634h-87v45h229v-45h-86v-436q0 -79 46 -119t128 -40q179 0 179 157v438h-86v45h229v-45h-87v-436q0 -52 -17 -91t-41 -60.5t-57 -35t-59 -17.5t-53 -4q-37 0 -70 6t-64.5 21t-54 38t-36 59.5t-13.5 83.5v436zM176 743l118 145h50l127 -145h-37l-115 101l-108 -101 h-35z" />
<glyph unicode="&#xdc;" horiz-adv-x="646" d="M90 634h-87v45h229v-45h-86v-436q0 -79 46 -119t128 -40q179 0 179 157v438h-86v45h229v-45h-87v-436q0 -52 -17 -91t-41 -60.5t-57 -35t-59 -17.5t-53 -4q-37 0 -70 6t-64.5 21t-54 38t-36 59.5t-13.5 83.5v436zM410 849q14 0 24 -10t10 -24t-10 -24t-24 -10t-24 10 t-10 24t10 24t24 10zM237 849q14 0 24 -10t10 -24t-10 -24t-24 -10t-24 10t-10 24t10 24t24 10z" />
<glyph unicode="&#xdd;" horiz-adv-x="604" d="M183 0v45h94v261l-208 328h-88v45h242v-45h-89l176 -279l177 279h-88v45h224v-45h-82l-208 -328v-261h97v-45h-247zM267 739h-38l100 155h57z" />
<glyph unicode="&#xde;" d="M16 0v45h90v589h-90v45h238v-45h-92v-95h148q112 0 167.5 -56.5t55.5 -142.5q0 -84 -55 -142t-164 -58h-152v-95h92v-45h-238zM162 494v-309h128q187 0 187 150q0 81 -44 120t-137 39h-134z" />
<glyph unicode="&#xdf;" horiz-adv-x="615" d="M101 45v458q0 86 54 136.5t153 50.5q92 0 147.5 -45.5t55.5 -119.5q0 -47 -24 -81t-68 -47v-2q73 -13 114 -65.5t41 -130.5q0 -91 -53.5 -148.5t-137.5 -57.5q-32 0 -57 7v45q10 -6 28 -8q22 -2 31 -2q52 0 95 42t43 119q0 35 -9 64t-30 55.5t-61.5 41.5t-96.5 15v40h11 q61 0 91 32q32 36 32 85q0 52 -41.5 85.5t-110.5 33.5q-28 0 -52.5 -5.5t-49 -20t-39 -44t-14.5 -72.5v-461h75v-45h-212v45h85z" />
<glyph unicode="&#xe0;" horiz-adv-x="510" d="M370 0v68q-88 -75 -175 -75q-60 0 -102 41t-42 99q0 64 49.5 105t125.5 41q69 0 144 -39v110q0 99 -126 99q-108 0 -146 -81l-39 10q28 57 72.5 82.5t116.5 25.5q88 0 131 -35.5t43 -98.5v-307h78v-45h-130zM370 112v86q-73 42 -135 42q-58 0 -94.5 -30.5t-36.5 -79.5 q0 -42 29.5 -69.5t74.5 -27.5q41 0 87 22.5t75 56.5zM291 536l-119 155h57l100 -155h-38z" />
<glyph unicode="&#xe1;" horiz-adv-x="510" d="M370 0v68q-88 -75 -175 -75q-60 0 -102 41t-42 99q0 64 49.5 105t125.5 41q69 0 144 -39v110q0 99 -126 99q-108 0 -146 -81l-39 10q28 57 72.5 82.5t116.5 25.5q88 0 131 -35.5t43 -98.5v-307h78v-45h-130zM370 112v86q-73 42 -135 42q-58 0 -94.5 -30.5t-36.5 -79.5 q0 -42 29.5 -69.5t74.5 -27.5q41 0 87 22.5t75 56.5zM220 536h-38l100 155h57z" />
<glyph unicode="&#xe2;" horiz-adv-x="510" d="M370 0v68q-88 -75 -175 -75q-60 0 -102 41t-42 99q0 64 49.5 105t125.5 41q69 0 144 -39v110q0 99 -126 99q-108 0 -146 -81l-39 10q28 57 72.5 82.5t116.5 25.5q88 0 131 -35.5t43 -98.5v-307h78v-45h-130zM370 112v86q-73 42 -135 42q-58 0 -94.5 -30.5t-36.5 -79.5 q0 -42 29.5 -69.5t74.5 -27.5q41 0 87 22.5t75 56.5zM108 540l118 145h50l127 -145h-37l-115 101l-108 -101h-35z" />
<glyph unicode="&#xe3;" horiz-adv-x="510" d="M370 0v68q-88 -75 -175 -75q-60 0 -102 41t-42 99q0 64 49.5 105t125.5 41q69 0 144 -39v110q0 99 -126 99q-108 0 -146 -81l-39 10q28 57 72.5 82.5t116.5 25.5q88 0 131 -35.5t43 -98.5v-307h78v-45h-130zM370 112v86q-73 42 -135 42q-58 0 -94.5 -30.5t-36.5 -79.5 q0 -42 29.5 -69.5t74.5 -27.5q41 0 87 22.5t75 56.5zM121 569h-27q28 88 88 88q27 0 75 -24t75 -24q38 0 59 47h26q-10 -40 -35 -63.5t-57 -23.5q-28 0 -76 24t-70 24q-40 0 -58 -48z" />
<glyph unicode="&#xe4;" horiz-adv-x="510" d="M370 0v68q-88 -75 -175 -75q-60 0 -102 41t-42 99q0 64 49.5 105t125.5 41q69 0 144 -39v110q0 99 -126 99q-108 0 -146 -81l-39 10q28 57 72.5 82.5t116.5 25.5q88 0 131 -35.5t43 -98.5v-307h78v-45h-130zM370 112v86q-73 42 -135 42q-58 0 -94.5 -30.5t-36.5 -79.5 q0 -42 29.5 -69.5t74.5 -27.5q41 0 87 22.5t75 56.5zM342 646q14 0 24 -10t10 -24t-10 -24t-24 -10t-24 10t-10 24t10 24t24 10zM169 646q14 0 24 -10t10 -24t-10 -24t-24 -10t-24 10t-10 24t10 24t24 10z" />
<glyph unicode="&#xe5;" horiz-adv-x="510" d="M370 0v68q-88 -75 -175 -75q-60 0 -102 41t-42 99q0 64 49.5 105t125.5 41q69 0 144 -39v110q0 99 -126 99q-108 0 -146 -81l-39 10q28 57 72.5 82.5t116.5 25.5q88 0 131 -35.5t43 -98.5v-307h78v-45h-130zM370 112v86q-73 42 -135 42q-58 0 -94.5 -30.5t-36.5 -79.5 q0 -42 29.5 -69.5t74.5 -27.5q41 0 87 22.5t75 56.5zM255 703q38 0 65 -26.5t27 -64.5t-27 -65t-65 -27t-64.5 27t-26.5 65t26.5 64.5t64.5 26.5zM255 673q-26 0 -43.5 -17.5t-17.5 -43.5t18 -44t43 -18q26 0 44 18t18 44q0 25 -18 43t-44 18z" />
<glyph unicode="&#xe6;" horiz-adv-x="865" d="M829 225h-416q7 -89 60.5 -141.5t136.5 -52.5q112 0 186 100l40 -21q-32 -50 -88.5 -87t-136.5 -37q-131 0 -202 108q-97 -108 -201 -108q-67 0 -110.5 41.5t-43.5 104.5q0 65 47 105t123 40q74 0 143 -42v113q0 99 -127 99q-101 0 -138 -80l-41 11q20 50 69.5 79 t116.5 29q141 0 166 -108q68 108 190 108q93 0 159.5 -68t66.5 -193zM418 270h360q-4 75 -56 123.5t-122 48.5q-67 0 -120.5 -46.5t-61.5 -125.5zM367 195q-84 44 -138 44q-55 0 -90 -30.5t-35 -77.5q0 -46 30.5 -76t76.5 -30q82 0 156 79v91z" />
<glyph unicode="&#xe7;" horiz-adv-x="510" d="M217 -80l14 71q-86 14 -138 79.5t-52 160.5q0 107 65 178t162 71q99 0 150 -69h2v62h43v-180h-43q0 63 -44 101.5t-106 38.5q-78 0 -127 -55t-49 -143q0 -91 50 -146.5t130 -55.5q114 0 164 113l42 -18q-26 -67 -80.5 -104.5t-124.5 -37.5h-13l-6 -29q34 -4 53.5 -24.5 t19.5 -52.5q0 -50 -45 -72q-41 -20 -109 -20h-13v32q12 -1 22 -1q34 0 60 9q35 13 35 46q0 39 -62 46z" />
<glyph unicode="&#xe8;" d="M517 225h-425q0 -82 58 -139.5t141 -57.5q113 0 185 103l41 -19q-35 -59 -97 -92.5t-135 -33.5q-107 0 -176 70.5t-69 179.5q0 110 67.5 180t173.5 70q104 0 169 -71.5t67 -189.5zM93 270h370q-13 82 -62.5 127t-123.5 45q-73 0 -121.5 -46t-62.5 -126zM312 536l-119 155 h57l100 -155h-38z" />
<glyph unicode="&#xe9;" d="M517 225h-425q0 -82 58 -139.5t141 -57.5q113 0 185 103l41 -19q-35 -59 -97 -92.5t-135 -33.5q-107 0 -176 70.5t-69 179.5q0 110 67.5 180t173.5 70q104 0 169 -71.5t67 -189.5zM93 270h370q-13 82 -62.5 127t-123.5 45q-73 0 -121.5 -46t-62.5 -126zM241 536h-38 l100 155h57z" />
<glyph unicode="&#xea;" d="M517 225h-425q0 -82 58 -139.5t141 -57.5q113 0 185 103l41 -19q-35 -59 -97 -92.5t-135 -33.5q-107 0 -176 70.5t-69 179.5q0 110 67.5 180t173.5 70q104 0 169 -71.5t67 -189.5zM93 270h370q-13 82 -62.5 127t-123.5 45q-73 0 -121.5 -46t-62.5 -126zM129 540l118 145 h50l127 -145h-37l-115 101l-108 -101h-35z" />
<glyph unicode="&#xeb;" d="M517 225h-425q0 -82 58 -139.5t141 -57.5q113 0 185 103l41 -19q-35 -59 -97 -92.5t-135 -33.5q-107 0 -176 70.5t-69 179.5q0 110 67.5 180t173.5 70q104 0 169 -71.5t67 -189.5zM93 270h370q-13 82 -62.5 127t-123.5 45q-73 0 -121.5 -46t-62.5 -126zM363 646 q14 0 24 -10t10 -24t-10 -24t-24 -10t-24 10t-10 24t10 24t24 10zM190 646q14 0 24 -10t10 -24t-10 -24t-24 -10t-24 10t-10 24t10 24t24 10z" />
<glyph unicode="&#xec;" horiz-adv-x="250" d="M24 0v45h84v383h-84v45h136v-428h80v-45h-216zM131 536l-119 155h57l100 -155h-38z" />
<glyph unicode="&#xed;" horiz-adv-x="250" d="M24 0v45h84v383h-84v45h136v-428h80v-45h-216zM90 536h-38l100 155h57z" />
<glyph unicode="&#xee;" horiz-adv-x="250" d="M24 0v45h84v383h-84v45h136v-428h80v-45h-216zM-22 540l118 145h50l127 -145h-37l-115 101l-108 -101h-35z" />
<glyph unicode="&#xef;" horiz-adv-x="250" d="M24 0v45h84v383h-84v45h136v-428h80v-45h-216zM212 646q14 0 24 -10t10 -24t-10 -24t-24 -10t-24 10t-10 24t10 24t24 10zM39 646q14 0 24 -10t10 -24t-10 -24t-24 -10t-24 10t-10 24t10 24t24 10z" />
<glyph unicode="&#xf0;" horiz-adv-x="563" d="M99 236q0 -88 51.5 -145.5t130.5 -57.5q80 0 131.5 60t51.5 157q0 77 -50 133t-133 56q-79 0 -130.5 -57.5t-51.5 -145.5zM493 667l-126 -59q73 -61 111.5 -145.5t38.5 -180.5q0 -141 -65 -218.5t-167 -77.5q-103 0 -171 70t-68 180q0 106 68 178t167 72q100 0 161 -77 l2 2q-12 31 -22.5 52t-39 55.5t-67.5 64.5l-130 -62l-37 26l130 62q-59 37 -110 57l55 27q65 -28 109 -59l124 59z" />
<glyph unicode="&#xf1;" horiz-adv-x="531" d="M7 0v45h87v383h-87v45h139v-73q96 80 178 80q57 0 92.5 -33t35.5 -90v-312h76v-45h-212v45h84v298q0 90 -79 90q-39 0 -86.5 -23t-88.5 -62v-303h77v-45h-216zM131 569h-27q28 88 88 88q27 0 75 -24t75 -24q38 0 59 47h26q-10 -40 -35 -63.5t-57 -23.5q-28 0 -76 24 t-70 24q-40 0 -58 -48z" />
<glyph unicode="&#xf2;" d="M41 236q0 107 67.5 178.5t167.5 71.5q101 0 168.5 -72t67.5 -178t-67.5 -178t-168.5 -72q-100 0 -167.5 71.5t-67.5 178.5zM94 236q0 -88 51.5 -145.5t130.5 -57.5t131 57.5t52 145.5t-52 145.5t-131 57.5t-130.5 -57.5t-51.5 -145.5zM312 536l-119 155h57l100 -155h-38z " />
<glyph unicode="&#xf3;" d="M41 236q0 107 67.5 178.5t167.5 71.5q101 0 168.5 -72t67.5 -178t-67.5 -178t-168.5 -72q-100 0 -167.5 71.5t-67.5 178.5zM94 236q0 -88 51.5 -145.5t130.5 -57.5t131 57.5t52 145.5t-52 145.5t-131 57.5t-130.5 -57.5t-51.5 -145.5zM241 536h-38l100 155h57z" />
<glyph unicode="&#xf4;" d="M41 236q0 107 67.5 178.5t167.5 71.5q101 0 168.5 -72t67.5 -178t-67.5 -178t-168.5 -72q-100 0 -167.5 71.5t-67.5 178.5zM94 236q0 -88 51.5 -145.5t130.5 -57.5t131 57.5t52 145.5t-52 145.5t-131 57.5t-130.5 -57.5t-51.5 -145.5zM129 540l118 145h50l127 -145h-37 l-115 101l-108 -101h-35z" />
<glyph unicode="&#xf5;" d="M41 236q0 107 67.5 178.5t167.5 71.5q101 0 168.5 -72t67.5 -178t-67.5 -178t-168.5 -72q-100 0 -167.5 71.5t-67.5 178.5zM94 236q0 -88 51.5 -145.5t130.5 -57.5t131 57.5t52 145.5t-52 145.5t-131 57.5t-130.5 -57.5t-51.5 -145.5zM142 569h-27q28 88 88 88 q27 0 75 -24t75 -24q38 0 59 47h26q-10 -40 -35 -63.5t-57 -23.5q-28 0 -76 24t-70 24q-40 0 -58 -48z" />
<glyph unicode="&#xf6;" d="M41 236q0 107 67.5 178.5t167.5 71.5q101 0 168.5 -72t67.5 -178t-67.5 -178t-168.5 -72q-100 0 -167.5 71.5t-67.5 178.5zM94 236q0 -88 51.5 -145.5t130.5 -57.5t131 57.5t52 145.5t-52 145.5t-131 57.5t-130.5 -57.5t-51.5 -145.5zM363 646q14 0 24 -10t10 -24 t-10 -24t-24 -10t-24 10t-10 24t10 24t24 10zM190 646q14 0 24 -10t10 -24t-10 -24t-24 -10t-24 10t-10 24t10 24t24 10z" />
<glyph unicode="&#xf7;" horiz-adv-x="668" d="M71 299v45h525v-45h-525zM333 88q-13 0 -22 9t-9 22t9 22.5t22 9.5t22.5 -9.5t9.5 -22.5t-9.5 -22t-22.5 -9zM333 492q-13 0 -22 9t-9 22t9 22.5t22 9.5t22.5 -9.5t9.5 -22.5t-9.5 -22t-22.5 -9z" />
<glyph unicode="&#xf8;" d="M519 489l-69 -80q63 -75 63 -173q0 -106 -67.5 -178t-167.5 -72q-83 0 -148 52l-66 -77l-28 23l68 79q-62 70 -62 175t67.5 176.5t167.5 71.5q85 0 148 -52l68 78zM417 370l-255 -295q51 -42 116 -42q78 0 130 57.5t52 144.5q0 78 -43 135zM137 101l256 295 q-49 43 -116 43q-79 0 -130.5 -57.5t-51.5 -144.5q0 -78 42 -136z" />
<glyph unicode="&#xf9;" horiz-adv-x="542" d="M401 0v68q-87 -75 -186 -75q-55 0 -87 32t-32 85v318h-83v45h135v-350q0 -83 77 -83q42 0 89.5 23t86.5 63v302h-83v45h135v-428h81v-45h-133zM277 536l-119 155h57l100 -155h-38z" />
<glyph unicode="&#xfa;" horiz-adv-x="542" d="M401 0v68q-87 -75 -186 -75q-55 0 -87 32t-32 85v318h-83v45h135v-350q0 -83 77 -83q42 0 89.5 23t86.5 63v302h-83v45h135v-428h81v-45h-133zM236 536h-38l100 155h57z" />
<glyph unicode="&#xfb;" horiz-adv-x="542" d="M401 0v68q-87 -75 -186 -75q-55 0 -87 32t-32 85v318h-83v45h135v-350q0 -83 77 -83q42 0 89.5 23t86.5 63v302h-83v45h135v-428h81v-45h-133zM124 540l118 145h50l127 -145h-37l-115 101l-108 -101h-35z" />
<glyph unicode="&#xfc;" horiz-adv-x="542" d="M401 0v68q-87 -75 -186 -75q-55 0 -87 32t-32 85v318h-83v45h135v-350q0 -83 77 -83q42 0 89.5 23t86.5 63v302h-83v45h135v-428h81v-45h-133zM358 646q14 0 24 -10t10 -24t-10 -24t-24 -10t-24 10t-10 24t10 24t24 10zM185 646q14 0 24 -10t10 -24t-10 -24t-24 -10 t-24 10t-10 24t10 24t24 10z" />
<glyph unicode="&#xfd;" horiz-adv-x="531" d="M184 -167l66 180l-170 415h-78v45h206v-45h-77l144 -352l133 352h-75v45h197v-45h-72l-242 -640h-132v45h100zM230 536h-38l100 155h57z" />
<glyph unicode="&#xfe;" horiz-adv-x="594" d="M84 -167v801h-82v45h134v-306h2q27 50 76 78.5t108 28.5q98 0 164 -70.5t66 -175.5q0 -109 -65 -178.5t-168 -69.5q-127 0 -181 108h-2v-261h86v-45h-224v45h86zM134 235q0 -89 52 -145.5t134 -56.5q81 0 132 56t51 146q0 88 -53 144t-135 56q-79 0 -130 -56t-51 -144z " />
<glyph unicode="&#xff;" horiz-adv-x="531" d="M184 -167l66 180l-170 415h-78v45h206v-45h-77l144 -352l133 352h-75v45h197v-45h-72l-242 -640h-132v45h100zM352 646q14 0 24 -10t10 -24t-10 -24t-24 -10t-24 10t-10 24t10 24t24 10zM179 646q14 0 24 -10t10 -24t-10 -24t-24 -10t-24 10t-10 24t10 24t24 10z" />
<glyph unicode="&#x131;" horiz-adv-x="250" d="M24 0v45h84v383h-84v45h136v-428h80v-45h-216z" />
<glyph unicode="&#x152;" horiz-adv-x="1052" d="M991 166v-166h-580q-92 0 -163 28t-113 76t-63.5 106.5t-21.5 125.5q0 60 17 116t55 109t110.5 85.5t171.5 32.5h587v-163h-45v118h-354v-261h281v-45h-281v-283h354v121h45zM536 45v589h-115q-73 0 -129 -18t-90.5 -46.5t-56.5 -68.5t-30.5 -80t-8.5 -85 q0 -139 84.5 -215t223.5 -76h122z" />
<glyph unicode="&#x153;" horiz-adv-x="927" d="M895 226h-406q3 -88 55 -142t134 -54q114 0 176 101l41 -19q-73 -126 -220 -126q-145 0 -212 126q-23 -58 -77 -92t-124 -34q-101 0 -162 68.5t-61 182.5q0 111 62 180t162 69q69 0 123.5 -36.5t76.5 -97.5q28 63 83 98.5t123 35.5q40 0 78 -14t72.5 -43t55 -81.5 t20.5 -121.5zM489 271h352q-5 73 -53.5 122.5t-117.5 49.5q-72 0 -124.5 -50t-56.5 -122zM91 243q0 -99 46 -155.5t126 -56.5q73 0 123.5 48t50.5 155q0 95 -46.5 150t-125.5 55q-74 0 -124 -51t-50 -145z" />
<glyph unicode="&#x178;" horiz-adv-x="604" d="M183 0v45h94v261l-208 328h-88v45h242v-45h-89l176 -279l177 279h-88v45h224v-45h-82l-208 -328v-261h97v-45h-247zM389 849q14 0 24 -10t10 -24t-10 -24t-24 -10t-24 10t-10 24t10 24t24 10zM216 849q14 0 24 -10t10 -24t-10 -24t-24 -10t-24 10t-10 24t10 24t24 10z " />
<glyph unicode="&#x2c6;" horiz-adv-x="333" d="M19 540l118 145h50l127 -145h-37l-115 101l-108 -101h-35z" />
<glyph unicode="&#x2da;" horiz-adv-x="333" d="M166 703q38 0 65 -26.5t27 -64.5t-27 -65t-65 -27t-64.5 27t-26.5 65t26.5 64.5t64.5 26.5zM166 673q-26 0 -43.5 -17.5t-17.5 -43.5t18 -44t43 -18q26 0 44 18t18 44q0 25 -18 43t-44 18z" />
<glyph unicode="&#x2dc;" horiz-adv-x="333" d="M32 569h-27q28 88 88 88q27 0 75 -24t75 -24q38 0 59 47h26q-10 -40 -35 -63.5t-57 -23.5q-28 0 -76 24t-70 24q-40 0 -58 -48z" />
<glyph unicode="&#x3bc;" d="M104 473h49v-239q0 -103 37 -148.5t90 -45.5q126 0 126 199v234h49v-473h-49v58h-2q-50 -70 -126 -70q-38 0 -66.5 16t-56.5 54h-2v-270h-49v685z" />
<glyph unicode="&#x2000;" horiz-adv-x="453" />
<glyph unicode="&#x2001;" horiz-adv-x="906" />
<glyph unicode="&#x2002;" horiz-adv-x="453" />
<glyph unicode="&#x2003;" horiz-adv-x="906" />
<glyph unicode="&#x2004;" horiz-adv-x="302" />
<glyph unicode="&#x2005;" horiz-adv-x="226" />
<glyph unicode="&#x2006;" horiz-adv-x="151" />
<glyph unicode="&#x2007;" horiz-adv-x="151" />
<glyph unicode="&#x2008;" horiz-adv-x="113" />
<glyph unicode="&#x2009;" horiz-adv-x="181" />
<glyph unicode="&#x200a;" horiz-adv-x="50" />
<glyph unicode="&#x2010;" horiz-adv-x="344" d="M34 214v45h275v-45h-275z" />
<glyph unicode="&#x2011;" horiz-adv-x="344" d="M34 214v45h275v-45h-275z" />
<glyph unicode="&#x2013;" horiz-adv-x="500" d="M-6 277h512v-53h-512v53z" />
<glyph unicode="&#x2014;" horiz-adv-x="1000" d="M-6 277h1012v-53h-1012v53z" />
<glyph unicode="&#x2018;" horiz-adv-x="250" d="M153 553v-93h-56v109q0 107 65 110v-36q-20 0 -26 -18t-8 -72h25z" />
<glyph unicode="&#x2019;" horiz-adv-x="250" d="M97 586v93h56v-109q0 -107 -65 -110v36q20 0 26 18t8 72h-25z" />
<glyph unicode="&#x201a;" horiz-adv-x="250" d="M97 0v93h56v-109q0 -107 -65 -110v36q20 0 26 18t8 72h-25z" />
<glyph unicode="&#x201c;" horiz-adv-x="479" d="M355 553h25v-93h-56v109q0 107 65 110v-36q-20 0 -26 -18t-8 -72zM121 553h25v-93h-56v109q0 107 65 110v-36q-20 0 -26 -18t-8 -72z" />
<glyph unicode="&#x201d;" horiz-adv-x="479" d="M358 586h-25v93h56v-109q0 -107 -65 -110v36q20 0 26 18t8 72zM124 586h-25v93h56v-109q0 -107 -65 -110v36q20 0 26 18t8 72z" />
<glyph unicode="&#x201e;" horiz-adv-x="479" d="M335 0v93h56v-109q0 -107 -65 -110v36q20 0 26 18t8 72h-25zM97 0v93h56v-109q0 -107 -65 -110v36q20 0 26 18t8 72h-25z" />
<glyph unicode="&#x2022;" horiz-adv-x="500" d="M250 463q50 0 86 -36t36 -86t-36 -86t-86 -36t-86 36t-36 86t36 86t86 36z" />
<glyph unicode="&#x2026;" horiz-adv-x="1000" d="M805 93h56v-93h-56v93zM472 93h56v-93h-56v93zM139 93h56v-93h-56v93z" />
<glyph unicode="&#x202f;" horiz-adv-x="181" />
<glyph unicode="&#x2039;" horiz-adv-x="229" d="M72 239l152 -239h-55l-153 239l153 239h55z" />
<glyph unicode="&#x203a;" horiz-adv-x="229" d="M157 239l-152 239h55l153 -239l-153 -239h-55z" />
<glyph unicode="&#x205f;" horiz-adv-x="226" />
<glyph unicode="&#x2122;" horiz-adv-x="938" d="M113 679h311v-43h-129v-356h-52v356h-130v43zM469 679h76l99 -319h2l102 319h76v-399h-45v356h-2l-116 -356h-34l-110 356h-2v-356h-46v399z" />
</font>
</defs>
</svg>
